<?xml version="1.0" encoding="UTF-8" standalone="no"?>
<!-- Generator: Adobe Illustrator 19.0.0, SVG Export Plug-In . SVG Version: 6.00 Build 0)  -->

<svg
   version="1.1"
   id="Layer_1"
   x="0px"
   y="0px"
   viewBox="0 0 170568.91 85160.289"
   xml:space="preserve"
   sodipodi:docname="cloud.svg"
   width="170568.91"
   height="85160.289"
   xmlns:inkscape="http://www.inkscape.org/namespaces/inkscape"
   xmlns:sodipodi="http://sodipodi.sourceforge.net/DTD/sodipodi-0.dtd"
   xmlns="http://www.w3.org/2000/svg"
   xmlns:svg="http://www.w3.org/2000/svg"><defs
   id="defs13" /><sodipodi:namedview
   id="namedview11"
   pagecolor="#ffffff"
   bordercolor="#999999"
   borderopacity="1"
   inkscape:showpageshadow="0"
   inkscape:pageopacity="0"
   inkscape:pagecheckerboard="0"
   inkscape:deskcolor="#d1d1d1"
   showgrid="false" />

<g
   id="g8"
   transform="rotate(-6.1647994,-555830.34,9663.4812)"
   inkscape:export-filename="g8.svg"
   inkscape:export-xdpi="500"
   inkscape:export-ydpi="500">
	<path
   style="fill:#b9edf1"
   d="m 392.735,212.633 c 0.239,-1.781 1.403,-3.315 1.403,-5.167 0,-28.213 -30.51,-51.094 -68.164,-51.094 -4.924,0 -9.31,1.366 -13.957,2.118 -11.285,-14.997 -31.88,-25.549 -56.501,-25.549 -31.884,0 -57.223,17.343 -63.21,39.951 -30.922,6.136 -54.248,26.32 -54.248,51.457 0,23.805 20.8,43.408 49.257,50.671 9.646,21.702 36.082,37.605 68.201,37.605 29.137,0 53.833,-13.048 65.496,-31.569 7.484,2.5 15.671,3.981 24.389,3.981 33.384,0 60.467,-20.314 60.467,-45.406 0.001,-10.306 -5.406,-19.369 -13.133,-26.998 z"
   id="path2" />
	<path
   style="fill:#b9edf1"
   d="m 213.03,218.156 c 0.146,-1.081 0.849,-2.017 0.849,-3.139 0,-17.141 -18.533,-31.042 -41.406,-31.042 -2.997,0 -5.658,0.834 -8.479,1.291 -6.855,-9.111 -19.36,-15.517 -34.319,-15.517 -19.367,0 -34.765,10.529 -38.398,24.262 -18.784,3.734 -32.954,15.989 -32.954,31.259 0,14.458 12.636,26.364 29.919,30.78 5.86,13.182 21.915,22.843 41.429,22.843 17.699,0 32.695,-7.925 39.779,-19.177 4.554,1.515 9.523,2.417 14.821,2.417 20.273,0 36.729,-12.344 36.729,-27.581 0.003,-6.26 -3.278,-11.764 -7.97,-16.396 z"
   id="path4" />
	<path
   style="fill:#b9edf1"
   d="m 286.974,272.625 c -0.123,0.898 -0.707,1.68 -0.707,2.608 0,14.252 15.412,25.803 34.428,25.803 2.485,0 4.7,-0.692 7.046,-1.07 5.691,7.573 16.093,12.902 28.531,12.902 16.101,0 28.898,-8.756 31.913,-20.176 15.618,-3.102 27.397,-13.291 27.397,-25.983 0,-12.022 -10.503,-21.919 -24.868,-25.594 -4.876,-10.956 -18.226,-18.986 -34.443,-18.986 -14.72,0 -27.188,6.586 -33.07,15.94 -3.787,-1.257 -7.914,-2.009 -12.322,-2.009 -16.86,0 -30.54,10.26 -30.54,22.926 -0.003,5.212 2.733,9.785 6.635,13.639 z"
   id="path6" />
</g>
</svg>
