<svg width="16" height="16" viewBox="0 0 16 16" fill="none" xmlns="http://www.w3.org/2000/svg">
<path fill-rule="evenodd" clip-rule="evenodd" d="M8.49514 2.15188C9.00764 1.52844 9.88264 1.05094 10.6326 1C10.7601 1.85281 10.4114 2.68406 9.95139 3.27063C9.47389 3.88688 8.65639 4.36781 7.85764 4.36781H7.79764C7.64764 3.555 8.03014 2.71688 8.49514 2.15188ZM9.32448 4.61805C9.75268 4.45551 10.2233 4.27686 10.9102 4.27686L10.907 4.27811C11.8592 4.27811 12.8692 4.79936 13.588 5.69936C11.2333 6.99342 11.6158 10.3687 13.9967 11.2725C13.6717 12.0022 13.5142 12.3259 13.0905 12.9709C12.5017 13.8678 11.6733 14.9865 10.642 14.9975H10.6233C10.2114 14.9975 9.93767 14.8717 9.64288 14.7363C9.29893 14.5783 8.9263 14.4072 8.27205 14.4072H8.2533C7.58937 14.4109 7.20567 14.5826 6.85311 14.7404C6.55069 14.8758 6.27118 15.0009 5.85736 15.0009H5.83861C4.80736 14.99 4.02111 13.9803 3.43236 13.08C1.78642 10.565 1.61392 7.61279 2.63017 6.04529C3.35392 4.93373 4.49361 4.28123 5.56236 4.28123C6.1347 4.28123 6.59559 4.44523 7.03419 4.6013C7.43232 4.74297 7.81208 4.87811 8.24017 4.87811C8.63935 4.87811 8.96713 4.75369 9.32448 4.61805Z" fill="#6A6A6A"/>
</svg>
