<svg width="32" height="32" viewBox="0 0 32 32" fill="none" xmlns="http://www.w3.org/2000/svg">
<path d="M15.9955 21.1667C15.8651 21.1667 15.7444 21.1445 15.6333 21.1C15.5221 21.0556 15.411 20.9778 15.2999 20.8667L10.2666 15.8334C10.0666 15.6273 9.97214 15.3869 9.98325 15.1122C9.99436 14.8374 10.0956 14.6 10.2869 14.4C10.4956 14.2 10.7388 14.1 11.0166 14.1C11.2944 14.1 11.5333 14.2 11.7333 14.4L14.9999 17.7V6.33337C14.9999 6.05004 15.0963 5.81254 15.2891 5.62087C15.4819 5.42921 15.7208 5.33337 16.0058 5.33337C16.2908 5.33337 16.5277 5.42921 16.7166 5.62087C16.9055 5.81254 16.9999 6.05004 16.9999 6.33337V17.7L20.2999 14.4C20.4955 14.2 20.7277 14.1056 20.9966 14.1167C21.2655 14.1278 21.5043 14.2334 21.713 14.4334C21.9043 14.6334 21.9999 14.8723 21.9999 15.15C21.9999 15.4278 21.8999 15.6667 21.6999 15.8667L16.6999 20.8667C16.5888 20.9778 16.4762 21.0556 16.3622 21.1C16.2481 21.1445 16.1258 21.1667 15.9955 21.1667ZM7.33325 26.6667C6.79992 26.6667 6.33325 26.4667 5.93325 26.0667C5.53325 25.6667 5.33325 25.2 5.33325 24.6667V20.9C5.33325 20.6167 5.42964 20.3792 5.62242 20.1875C5.81522 19.9959 6.05411 19.9 6.33909 19.9C6.62409 19.9 6.86103 19.9959 7.04992 20.1875C7.23881 20.3792 7.33325 20.6167 7.33325 20.9V24.6667H24.6666V20.9C24.6666 20.6167 24.763 20.3792 24.9558 20.1875C25.1486 19.9959 25.3874 19.9 25.6724 19.9C25.9574 19.9 26.1944 19.9959 26.3833 20.1875C26.5721 20.3792 26.6666 20.6167 26.6666 20.9V24.6667C26.6666 25.2 26.4666 25.6667 26.0666 26.0667C25.6666 26.4667 25.1999 26.6667 24.6666 26.6667H7.33325Z" fill="black"/>
</svg>
