<svg width="16" height="16" viewBox="0 0 16 16" fill="none" xmlns="http://www.w3.org/2000/svg">
<path d="M11.5336 5.80187C9.87044 4.89222 7.20099 3.43154 3.06046 1.1645C2.7813 0.984221 2.46012 0.960596 2.18262 1.05244L9.2866 7.99913L11.5336 5.80187Z" fill="#32BBFF"/>
<path d="M2.18266 1.05237C2.13065 1.06959 2.08004 1.09038 2.03163 1.11548C1.72519 1.27757 1.5 1.58948 1.5 1.98397V14.0141C1.5 14.4086 1.72516 14.7205 2.03163 14.8826C2.07995 14.9077 2.13054 14.9285 2.18249 14.9459L9.28664 7.99905L2.18266 1.05237Z" fill="#32BBFF"/>
<path d="M9.28677 7.99915L2.18262 14.946C2.46021 15.0385 2.78139 15.0167 3.06063 14.8338C7.07605 12.6351 9.71542 11.1917 11.3978 10.2743C11.4447 10.2486 11.4906 10.2234 11.5359 10.1985L9.28677 7.99915Z" fill="#32BBFF"/>
<path d="M1.5 7.99927V14.0144C1.5 14.4088 1.72516 14.7208 2.03163 14.8828C2.07995 14.9079 2.13054 14.9288 2.18249 14.9461L9.28664 7.99927H1.5Z" fill="#2C9FD9"/>
<path d="M3.06061 1.16458C2.72911 0.950535 2.33818 0.956632 2.03174 1.11566L9.17893 8.10462L11.5337 5.80195C9.87059 4.8923 7.20114 3.43163 3.06061 1.16458Z" fill="#29CC5E"/>
<path d="M9.17898 7.8938L2.03174 14.8827C2.33821 15.0417 2.72911 15.0509 3.06061 14.8338C7.07603 12.6351 9.7154 11.1917 11.3978 10.2743C11.4447 10.2486 11.4905 10.2235 11.5359 10.1986L9.17898 7.8938Z" fill="#D93F21"/>
<path d="M14.5 7.99922C14.5 7.66589 14.328 7.32951 13.9871 7.14297C13.9871 7.14297 13.3495 6.79513 11.3954 5.72632L9.07104 7.99922L11.3977 10.2744C13.3304 9.21322 13.987 8.85543 13.987 8.85543C14.328 8.66892 14.5 8.33254 14.5 7.99922Z" fill="#FFD500"/>
<path d="M13.9871 8.85551C14.328 8.66897 14.5 8.33259 14.5 7.99927H9.07104L11.3977 10.2744C13.3304 9.2133 13.9871 8.85551 13.9871 8.85551Z" fill="#FFAA00"/>
</svg>
