<svg width="32" height="32" viewBox="0 0 32 32" fill="none" xmlns="http://www.w3.org/2000/svg">
<path d="M15.9999 14.6667C14.8888 14.6667 13.9444 14.2778 13.1666 13.5C12.3888 12.7223 11.9999 11.7778 11.9999 10.6667C11.9999 9.5556 12.3888 8.61116 13.1666 7.83338C13.9444 7.0556 14.8888 6.66671 15.9999 6.66671C17.111 6.66671 18.0555 7.0556 18.8333 7.83338C19.611 8.61116 19.9999 9.5556 19.9999 10.6667C19.9999 11.7778 19.611 12.7223 18.8333 13.5C18.0555 14.2778 17.111 14.6667 15.9999 14.6667ZM15.9999 12.6667C16.5555 12.6667 17.0277 12.4723 17.4166 12.0834C17.8055 11.6945 17.9999 11.2223 17.9999 10.6667C17.9999 10.1112 17.8055 9.63894 17.4166 9.25005C17.0277 8.86116 16.5555 8.66671 15.9999 8.66671C15.4444 8.66671 14.9721 8.86116 14.5833 9.25005C14.1944 9.63894 13.9999 10.1112 13.9999 10.6667C13.9999 11.2223 14.1944 11.6945 14.5833 12.0834C14.9721 12.4723 15.4444 12.6667 15.9999 12.6667ZM8.99992 22.6667C8.71103 22.6667 8.47214 22.5723 8.28326 22.3834C8.09437 22.1945 7.99992 21.9556 7.99992 21.6667V20.1334C7.99992 19.5556 8.15548 19.0556 8.46659 18.6334C8.7777 18.2112 9.28881 17.8112 9.99992 17.4334C10.9333 16.9445 11.8999 16.5834 12.8999 16.35C13.8999 16.1167 14.9333 16 15.9999 16C17.0666 16 18.0999 16.1167 19.0999 16.35C20.0999 16.5834 21.0666 16.9445 21.9999 17.4334C22.711 17.8112 23.2221 18.2112 23.5333 18.6334C23.8444 19.0556 23.9999 19.5556 23.9999 20.1334V21.6667C23.9999 21.9556 23.9055 22.1945 23.7166 22.3834C23.5277 22.5723 23.2888 22.6667 22.9999 22.6667H8.99992ZM15.9999 18C14.9333 18 13.8999 18.1445 12.8999 18.4334C11.8999 18.7223 10.9333 19.1556 9.99992 19.7334V20.6667H21.9999V19.7334C21.0666 19.1556 20.0999 18.7223 19.0999 18.4334C18.0999 18.1445 17.0666 18 15.9999 18ZM21.7999 2.13338C21.911 1.86671 22.1055 1.69449 22.3833 1.61671C22.661 1.53894 22.9333 1.56671 23.1999 1.70005C24.711 2.4556 26.061 3.42227 27.2499 4.60005C28.4388 5.77782 29.4221 7.11116 30.1999 8.60005C30.3333 8.86671 30.3666 9.14449 30.2999 9.43338C30.2333 9.72227 30.0666 9.94449 29.7999 10.1C29.5555 10.2334 29.2999 10.2389 29.0333 10.1167C28.7666 9.99449 28.5555 9.80005 28.3999 9.53338C27.7333 8.24449 26.8888 7.08894 25.8666 6.06671C24.8444 5.04449 23.6888 4.20005 22.3999 3.53338C22.1333 3.40005 21.9388 3.20005 21.8166 2.93338C21.6944 2.66671 21.6888 2.40005 21.7999 2.13338ZM10.0999 2.20005C10.2333 2.44449 10.2444 2.70005 10.1333 2.96671C10.0221 3.23338 9.83326 3.43338 9.56659 3.56671C8.25548 4.23338 7.09437 5.07782 6.08326 6.10005C5.07214 7.12227 4.23326 8.28894 3.56659 9.60005C3.43326 9.86671 3.23326 10.05 2.96659 10.15C2.69992 10.25 2.44437 10.2334 2.19992 10.1C1.93326 9.94449 1.76659 9.71671 1.69992 9.41671C1.63326 9.11671 1.6777 8.82227 1.83326 8.53338C2.58881 7.11116 3.53326 5.83338 4.66659 4.70005C5.79992 3.56671 7.0777 2.62227 8.49992 1.86671C8.78881 1.71116 9.08881 1.66116 9.39992 1.71671C9.71103 1.77227 9.94437 1.93338 10.0999 2.20005ZM2.23326 21.9C2.4777 21.7445 2.73326 21.7334 2.99992 21.8667C3.26659 22 3.4777 22.2112 3.63326 22.5C4.2777 23.7445 5.08326 24.8612 6.04992 25.85C7.01659 26.8389 8.12214 27.6556 9.36659 28.3C9.65548 28.4556 9.86659 28.6667 9.99992 28.9334C10.1333 29.2 10.1444 29.4667 10.0333 29.7334C9.92214 30 9.71659 30.1778 9.41659 30.2667C9.11659 30.3556 8.82214 30.3223 8.53326 30.1667C7.11103 29.4112 5.83326 28.4667 4.69992 27.3334C3.56659 26.2 2.62214 24.9223 1.86659 23.5C1.71103 23.2112 1.66659 22.9112 1.73326 22.6C1.79992 22.2889 1.96659 22.0556 2.23326 21.9ZM29.7999 21.9C30.0666 22.0556 30.2277 22.2889 30.2833 22.6C30.3388 22.9112 30.2888 23.2112 30.1333 23.5C29.3777 24.9223 28.4333 26.1945 27.2999 27.3167C26.1666 28.4389 24.8888 29.3778 23.4666 30.1334C23.1777 30.2889 22.8833 30.3389 22.5833 30.2834C22.2833 30.2278 22.0555 30.0667 21.8999 29.8C21.7666 29.5556 21.761 29.2945 21.8833 29.0167C22.0055 28.7389 22.1999 28.5334 22.4666 28.4C23.7333 27.7334 24.8721 26.9 25.8833 25.9C26.8944 24.9 27.7333 23.7667 28.3999 22.5C28.5555 22.2334 28.7666 22.0334 29.0333 21.9C29.2999 21.7667 29.5555 21.7667 29.7999 21.9ZM15.9999 20.6667H21.9999H9.99992H15.9999Z" fill="black"/>
</svg>
