<svg width="32" height="32" viewBox="0 0 32 32" fill="none" xmlns="http://www.w3.org/2000/svg">
<path d="M18.2 16.5667C20.0889 15.2779 21.5722 13.8556 22.65 12.3001C23.7278 10.7445 24.2667 9.17786 24.2667 7.60008C24.2667 6.66675 24.1111 5.94453 23.8 5.43341C23.4889 4.9223 23.0667 4.66675 22.5333 4.66675C21.2667 4.66675 20.1889 5.61119 19.3 7.50008C18.4111 9.38897 17.9667 11.6112 17.9667 14.1667C17.9667 14.6112 17.9833 15.0334 18.0167 15.4334C18.05 15.8334 18.1111 16.2112 18.2 16.5667ZM4.76665 21.8334C4.56665 22.0334 4.33332 22.1334 4.06665 22.1334C3.79998 22.1334 3.56665 22.0334 3.36665 21.8334C3.16665 21.6334 3.06665 21.4001 3.06665 21.1334C3.06665 20.8667 3.16665 20.6334 3.36665 20.4334L4.79998 19.0001L3.36665 17.5667C3.16665 17.3667 3.06665 17.1334 3.06665 16.8667C3.06665 16.6001 3.16665 16.3667 3.36665 16.1667C3.56665 15.9667 3.79998 15.8667 4.06665 15.8667C4.33332 15.8667 4.56665 15.9667 4.76665 16.1667L6.19998 17.6001L7.63332 16.1667C7.83332 15.9667 8.06665 15.8667 8.33332 15.8667C8.59998 15.8667 8.83332 15.9667 9.03332 16.1667C9.23332 16.3667 9.33332 16.6001 9.33332 16.8667C9.33332 17.1334 9.23332 17.3667 9.03332 17.5667L7.59998 19.0001L9.03332 20.4334C9.23332 20.6334 9.33332 20.8667 9.33332 21.1334C9.33332 21.4001 9.23332 21.6334 9.03332 21.8334C8.83332 22.0334 8.59998 22.1334 8.33332 22.1334C8.06665 22.1334 7.83332 22.0334 7.63332 21.8334L6.19998 20.4001L4.76665 21.8334ZM20.6 21.3334C19.8889 21.3334 19.25 21.1779 18.6833 20.8667C18.1167 20.5556 17.6333 20.1001 17.2333 19.5001C16.8111 19.7445 16.3833 19.9667 15.95 20.1667C15.5167 20.3667 15.0778 20.5667 14.6333 20.7667C14.3667 20.8779 14.1111 20.8834 13.8667 20.7834C13.6222 20.6834 13.4444 20.5001 13.3333 20.2334C13.2222 19.9667 13.2278 19.7056 13.35 19.4501C13.4722 19.1945 13.6667 19.0112 13.9333 18.9001C14.3778 18.7223 14.8055 18.5334 15.2167 18.3334C15.6278 18.1334 16.0222 17.9223 16.4 17.7001C16.2444 17.189 16.1333 16.639 16.0667 16.0501C16 15.4612 15.9667 14.8334 15.9667 14.1667C15.9667 10.9223 16.5833 8.19453 17.8167 5.98341C19.05 3.7723 20.6222 2.66675 22.5333 2.66675C23.6667 2.66675 24.5722 3.1223 25.25 4.03341C25.9278 4.94453 26.2667 6.16675 26.2667 7.70008C26.2667 9.65564 25.6278 11.5667 24.35 13.4334C23.0722 15.3001 21.2889 16.9779 19 18.4667C19.2222 18.7556 19.4667 18.9723 19.7333 19.1167C20 19.2612 20.2889 19.3334 20.6 19.3334C21.2667 19.3334 21.9611 19.0779 22.6833 18.5667C23.4055 18.0556 24.0889 17.3112 24.7333 16.3334C24.9111 16.089 25.1278 15.9279 25.3833 15.8501C25.6389 15.7723 25.9 15.789 26.1667 15.9001C26.4333 16.0334 26.6444 16.2279 26.8 16.4834C26.9555 16.739 27.0111 17.0223 26.9667 17.3334C26.9222 17.6667 26.9055 18.0001 26.9167 18.3334C26.9278 18.6667 26.9555 19.0223 27 19.4001C27.2 19.289 27.4055 19.1612 27.6167 19.0167C27.8278 18.8723 28.0444 18.7112 28.2667 18.5334C28.4889 18.3556 28.7389 18.2501 29.0167 18.2167C29.2944 18.1834 29.5444 18.2556 29.7667 18.4334C29.9889 18.6112 30.1111 18.8445 30.1333 19.1334C30.1555 19.4223 30.0667 19.6556 29.8667 19.8334C29.3778 20.3001 28.8722 20.6667 28.35 20.9334C27.8278 21.2001 27.3333 21.3334 26.8667 21.3334C26.3333 21.3334 25.9 21.1445 25.5667 20.7667C25.2333 20.389 25.0333 19.8445 24.9667 19.1334C24.3222 19.8445 23.6278 20.389 22.8833 20.7667C22.1389 21.1445 21.3778 21.3334 20.6 21.3334ZM4.99998 28.0001C4.71109 28.0001 4.47221 27.9056 4.28332 27.7167C4.09443 27.5279 3.99998 27.289 3.99998 27.0001C3.99998 26.7112 4.09443 26.4723 4.28332 26.2834C4.47221 26.0945 4.71109 26.0001 4.99998 26.0001C5.28887 26.0001 5.52776 26.0945 5.71665 26.2834C5.90554 26.4723 5.99998 26.7112 5.99998 27.0001C5.99998 27.289 5.90554 27.5279 5.71665 27.7167C5.52776 27.9056 5.28887 28.0001 4.99998 28.0001ZM10.5 28.0001C10.2111 28.0001 9.97221 27.9056 9.78332 27.7167C9.59443 27.5279 9.49998 27.289 9.49998 27.0001C9.49998 26.7112 9.59443 26.4723 9.78332 26.2834C9.97221 26.0945 10.2111 26.0001 10.5 26.0001C10.7889 26.0001 11.0278 26.0945 11.2167 26.2834C11.4055 26.4723 11.5 26.7112 11.5 27.0001C11.5 27.289 11.4055 27.5279 11.2167 27.7167C11.0278 27.9056 10.7889 28.0001 10.5 28.0001ZM16 28.0001C15.7111 28.0001 15.4722 27.9056 15.2833 27.7167C15.0944 27.5279 15 27.289 15 27.0001C15 26.7112 15.0944 26.4723 15.2833 26.2834C15.4722 26.0945 15.7111 26.0001 16 26.0001C16.2889 26.0001 16.5278 26.0945 16.7167 26.2834C16.9055 26.4723 17 26.7112 17 27.0001C17 27.289 16.9055 27.5279 16.7167 27.7167C16.5278 27.9056 16.2889 28.0001 16 28.0001ZM21.5 28.0001C21.2111 28.0001 20.9722 27.9056 20.7833 27.7167C20.5944 27.5279 20.5 27.289 20.5 27.0001C20.5 26.7112 20.5944 26.4723 20.7833 26.2834C20.9722 26.0945 21.2111 26.0001 21.5 26.0001C21.7889 26.0001 22.0278 26.0945 22.2167 26.2834C22.4055 26.4723 22.5 26.7112 22.5 27.0001C22.5 27.289 22.4055 27.5279 22.2167 27.7167C22.0278 27.9056 21.7889 28.0001 21.5 28.0001ZM27 28.0001C26.7111 28.0001 26.4722 27.9056 26.2833 27.7167C26.0944 27.5279 26 27.289 26 27.0001C26 26.7112 26.0944 26.4723 26.2833 26.2834C26.4722 26.0945 26.7111 26.0001 27 26.0001C27.2889 26.0001 27.5278 26.0945 27.7167 26.2834C27.9055 26.4723 28 26.7112 28 27.0001C28 27.289 27.9055 27.5279 27.7167 27.7167C27.5278 27.9056 27.2889 28.0001 27 28.0001Z" fill="black"/>
</svg>
